<svg xmlns="http://www.w3.org/2000/svg" xmlns:xlink="http://www.w3.org/1999/xlink" xmlns:lucid="lucid" width="1602.5" height="801"><g transform="translate(120.5 400.5)" lucid:page-tab-id="0_0"><path d="M961.1-374a6 6 0 0 1 6-6h148a6 6 0 0 1 6 6v8a14.48 14.48 0 0 1-4.24 10.24l-1.5 1.52a14.48 14.48 0 0 1-10.26 4.24h-138a6 6 0 0 1-6-6z" fill="#fff"/><path d="M1121.1-380v20l-10 10h-150" stroke="#3a414a" fill="none"/><path d="M961.1-374a6 6 0 0 1 6-6h388a6 6 0 0 1 6 6v628a6 6 0 0 1-6 6h-388a6 6 0 0 1-6-6z" stroke="#3a414a" fill="none"/><use xlink:href="#a" transform="matrix(1,0,0,1,969.1036357282376,-380) translate(0 19.444444444444443)"/><path d="M-84 100c-8.84 0-16 7.16-16 16v48c0 8.84 7.16 16 16 16H44c8.84 0 16-7.16 16-16v-48c0-8.84-7.16-16-16-16z" stroke="#3a414a" fill="#fff"/><use xlink:href="#b" transform="matrix(1,0,0,1,-92,108) translate(28.203703703703702 23.111111111111114)"/><use xlink:href="#c" transform="matrix(1,0,0,1,-92,108) translate(34.870370370370374 49.77777777777778)"/><path d="M316 100c-8.84 0-16 7.16-16 16v48c0 8.84 7.16 16 16 16h128c8.84 0 16-7.16 16-16v-48c0-8.84-7.16-16-16-16z" stroke="#3a414a" fill="#fff"/><use xlink:href="#d" transform="matrix(1,0,0,1,308,108) translate(29.03703703703703 23.111111111111114)"/><use xlink:href="#c" transform="matrix(1,0,0,1,308,108) translate(34.870370370370374 49.77777777777778)"/><path d="M106.81 140.47h-45.8v-.94h45.81zm176.32 0h-29.94v-.94h29.94z" stroke="#3a414a" stroke-width=".05" fill="#3a414a"/><path d="M61 140.47h-.5v-.94h.5z" fill="#3a414a"/><path stroke="#3a414a" stroke-width=".05" fill="#3a414a"/><path d="M297.88 140l-14.26 4.63v-9.26z" fill="#3a414a"/><path d="M299.42 140l-16.28 5.3v-10.6zm-15.33 3.98l12.25-3.98-12.26-3.98z" stroke="#3a414a" stroke-width=".05" fill="#3a414a"/><use xlink:href="#e" transform="matrix(1,0,0,1,106.81481481481481,129.33333333333334) translate(0 14.222222222222223)"/><use xlink:href="#f" transform="matrix(1,0,0,1,106.81481481481481,129.33333333333334) translate(82.96296296296296 14.222222222222223)"/><path d="M881.1-134a6 6 0 0 1 6-6h3.4a6 6 0 0 1 6 6V14a6 6 0 0 1-6 6h-3.4a6 6 0 0 1-6-6z" stroke="#3a414a"/><path d="M687.45 52.12l-12.8 16.2-9.58 11.12-8.13 8.67-7.28 7.15-6.72 6.05-6.33 5.24-6.04 4.6-5.86 4.07-5.72 3.65-5.64 3.25-5.6 2.92-5.57 2.63-5.6 2.36-5.66 2.1-5.74 1.88-5.87 1.64-6.04 1.4-6.22 1.2-6.45.95-6.74.7-7.06.45-6.94.15-.02-.96 6.92-.13 7.02-.44 6.7-.7 6.4-.95 6.18-1.18 6-1.4 5.83-1.63 5.7-1.86 5.62-2.08 5.57-2.34 5.53-2.6 5.55-2.9 5.6-3.25 5.7-3.6 5.82-4.06 6.02-4.57 6.3-5.22 6.7-6.02 7.24-7.1 8.1-8.65 9.56-11.08 12.78-16.18L702 30.86h1.18zM864.8-98.73l-4.82.5-6.4.95-6.2 1.18-5.98 1.4-5.84 1.63-5.7 1.86-5.63 2.08-5.57 2.34-5.54 2.6-5.56 2.9-5.6 3.25-5.68 3.6-5.83 4.06-6.02 4.57-6.3 5.22-6.7 6.02-7.24 7.1-8.1 8.65-9.56 11.08-27.57 37.25h-1.18l28-37.85 9.58-11.12 8.13-8.67 7.3-7.15 6.7-6.05 6.34-5.24 6.05-4.6 5.85-4.07 5.72-3.65 5.64-3.25 5.6-2.92 5.57-2.63 5.6-2.36 5.67-2.1L835.3-94l5.86-1.64 6.03-1.4 6.2-1.2 6.46-.95 4.84-.5z" stroke="#3a414a" stroke-width=".05" fill="#3a414a"/><path d="M539.87 140.46l-.54.02v-.95l.52-.02z" fill="#3a414a"/><path stroke="#3a414a" stroke-width=".05" fill="#3a414a"/><path d="M879.5-99.92l-14.04 5.32-.45-9.26z" fill="#3a414a"/><path d="M881.02-100l-16 6.08-.5-10.57zm-15.1 4.72l12.03-4.57-12.43-3.38z" stroke="#3a414a" stroke-width=".05" fill="#3a414a"/><use xlink:href="#g" transform="matrix(1,0,0,1,611.3727736784194,9.528648815716412) translate(0 14.222222222222223)"/><use xlink:href="#h" transform="matrix(1,0,0,1,611.3727736784194,9.528648815716412) translate(94.91358024691357 14.222222222222223)"/><use xlink:href="#i" transform="matrix(1,0,0,1,611.3727736784194,9.528648815716412) translate(173.03703703703704 14.222222222222223)"/><use xlink:href="#j" transform="matrix(1,0,0,1,611.3727736784194,9.528648815716412) translate(188.34567901234567 14.222222222222223)"/><path d="M1097.1-160c-8.83 0-16 7.16-16 16v48c0 8.84 7.17 16 16 16h128c8.84 0 16-7.16 16-16v-48c0-8.84-7.16-16-16-16z" stroke="#3a414a" fill="#fff"/><use xlink:href="#k" transform="matrix(1,0,0,1,1089.1036357282376,-152) translate(7.617283950617292 36.44444444444444)"/><use xlink:href="#l" transform="matrix(1,0,0,1,1089.1036357282376,-152) translate(71.50617283950618 36.44444444444444)"/><path d="M1097.1-40c-8.83 0-16 7.16-16 16v48c0 8.84 7.17 16 16 16h128c8.84 0 16-7.16 16-16v-48c0-8.84-7.16-16-16-16z" stroke="#3a414a" fill="#fff"/><use xlink:href="#m" transform="matrix(1,0,0,1,1089.1036357282376,-32) translate(14.654320987654323 23.111111111111114)"/><use xlink:href="#n" transform="matrix(1,0,0,1,1089.1036357282376,-32) translate(31.166666666666664 49.77777777777778)"/><path d="M1037.1 80c-8.83 0-16 7.16-16 16v48c0 8.84 7.17 16 16 16h248c8.84 0 16-7.16 16-16V96c0-8.84-7.16-16-16-16z" stroke="#3a414a" fill="#fff"/><use xlink:href="#o" transform="matrix(1,0,0,1,1029.1036357282376,88) translate(9.62345679012347 23.111111111111114)"/><use xlink:href="#p" transform="matrix(1,0,0,1,1029.1036357282376,88) translate(145.5493827160494 23.111111111111114)"/><use xlink:href="#q" transform="matrix(1,0,0,1,1029.1036357282376,88) translate(11.814814814814824 49.77777777777778)"/><use xlink:href="#r" transform="matrix(1,0,0,1,1029.1036357282376,88) translate(29.098765432098773 49.77777777777778)"/><use xlink:href="#s" transform="matrix(1,0,0,1,1029.1036357282376,88) translate(132.30864197530866 49.77777777777778)"/><path d="M1021.42 150.6h-33.48l-.88.07-.84.2-.8.34-.74.46-.66.56-.56.66-.46.74-.33.8-.2.84-.07.9v37.82l.07.88.2.85.33.8.46.75.56.66.66.57.74.45.8.33.84.2.88.08h30.1v.94H987.9l-1-.07-.98-.24-.93-.4-.88-.52-.77-.66-.66-.77-.55-.86-.38-.94-.24-1-.08-.98v-37.9l.08-1 .24-1 .38-.93.54-.88.65-.77.77-.66.87-.54.92-.4 1-.23 1-.08h33.5zm313.88-.87l.98.24.94.4.87.52.76.65.66.77.53.87.4.93.23 1 .08.98v37.92l-.08 1-.24.98-.4.94-.52.87-.66.78-.77.66-.88.53-.94.4-.98.23-1 .07h-30.13v-.94h30.1l.88-.07.84-.2.8-.34.73-.45.66-.56.55-.65.45-.74.34-.8.2-.84.07-.88v-37.83l-.06-.9-.2-.83-.34-.8-.45-.74-.56-.66-.67-.56-.74-.45-.8-.33-.85-.2-.9-.07h-17.58v-.95h17.63z" stroke="#3a414a" stroke-width=".05" fill="#3a414a"/><path d="M1022.12 150.6h-.7v-.95h.3z" fill="#3a414a"/><path stroke="#3a414a" stroke-width=".05" fill="#3a414a"/><path d="M1316.17 154.76l-14.27-4.63 14.27-4.64z" fill="#3a414a"/><path d="M1316.64 155.42l-16.28-5.3 16.28-5.28zm-13.2-5.3l12.25 4v-7.97z" stroke="#3a414a" stroke-width=".05" fill="#3a414a"/><use xlink:href="#t" transform="matrix(1,0,0,1,1018.0419047692501,189.33333333333334) translate(0.0049999999999954525 14.222222222222223)"/><use xlink:href="#u" transform="matrix(1,0,0,1,1018.0419047692501,189.33333333333334) translate(102.37537037037038 14.222222222222223)"/><use xlink:href="#v" transform="matrix(1,0,0,1,1018.0419047692501,189.33333333333334) translate(196.69635802469136 14.222222222222223)"/><path d="M1065.03-114.9L897.46-60.16" stroke="#3a414a" fill="none"/><path d="M1079.07-119.5l-12.13 8.84-2.87-8.8z" stroke="#3a414a" fill="#3a414a"/><path d="M897.62-59.7l-.63.2v-1l.33-.1z" stroke="#3a414a" stroke-width=".05" fill="#3a414a"/><path d="M1064.6-21.26L897.48-58.1" stroke="#3a414a" fill="none"/><path d="M1079.02-18.09l-14.93 1.47 2-9.05z" stroke="#3a414a" fill="#3a414a"/><path d="M897.6-58.55l-.2.93-.4-.1v-.96z" stroke="#3a414a" stroke-width=".05" fill="#3a414a"/><path d="M1011.72 106.22l-.78.54L896.88-59.32l.78-.54z" stroke="#3a414a" stroke-width=".05" fill="#3a414a"/><path d="M1019.7 118.67l-11.9-9.14 7.63-5.25z" fill="#3a414a"/><path d="M1020.56 119.93l-13.58-10.42 8.72-5.98zm-11.96-10.38l10.22 7.85-3.66-12.36z" stroke="#3a414a" stroke-width=".05" fill="#3a414a"/><path d="M897.67-59.85l-.68.47v-1.46z" fill="#3a414a"/><path stroke="#3a414a" stroke-width=".05" fill="#3a414a"/><path d="M897.1 300c-8.83 0-16 7.16-16 16v48c0 8.84 7.17 16 16 16h128c8.84 0 16-7.16 16-16v-48c0-8.84-7.16-16-16-16z" stroke="#3a414a" fill="#fff"/><use xlink:href="#w" transform="matrix(1,0,0,1,889.1036357282375,308) translate(18.604938271604937 36.44444444444444)"/><path d="M517.77 95.57a2.4 2.4 0 0 1 4.46 0l15.54 38.86a15 15 0 0 1 0 11.14l-15.54 38.86a2.4 2.4 0 0 1-4.46 0l-15.54-38.86a15 15 0 0 1 0-11.14z" stroke="#3a414a" fill="#fff"/><path d="M461 140h23.27" stroke="#3a414a" fill="none"/><path d="M461 140.47h-.5v-.94h.5z" stroke="#3a414a" stroke-width=".05" fill="#3a414a"/><path d="M499.04 140l-14.27 4.63v-9.26z" stroke="#3a414a" fill="#3a414a"/><path d="M744.66 278.12l9.72 9.53 8.28 7.47 7.47 6.2 6.97 5.28 6.62 4.6 6.4 4.07 6.3 3.63 6.2 3.24 6.2 2.92 6.22 2.62 6.3 2.34 6.44 2.1 6.6 1.84 6.83 1.6 7.1 1.35 7.4 1.1 7.8.82.77.05-.06.95-.77-.05-7.84-.82-7.46-1.1-7.13-1.36-6.85-1.62-6.64-1.85-6.46-2.1-6.35-2.37-6.28-2.63-6.23-2.94-6.25-3.27-6.3-3.64-6.45-4.1-6.66-4.64-7-5.3-7.5-6.22-8.3-7.5-9.77-9.57-25-28.3h1.27zM548.2 139.72l8.3.5 7.86.83 7.45 1.1 7.14 1.36 6.86 1.62 6.64 1.85 6.47 2.1 6.36 2.37 6.27 2.63 6.23 2.94 6.24 3.27 6.3 3.64 6.45 4.1 6.66 4.64 7 5.3 7.5 6.22 8.32 7.5 9.76 9.56 13.16 14.07 12.25 13.85h-1.28l-11.7-13.22-13.12-14.04-9.73-9.55-8.28-7.47-7.48-6.2-6.97-5.28-6.62-4.6-6.4-4.07-6.3-3.63-6.2-3.24-6.2-2.92-6.22-2.62-6.3-2.34-6.44-2.1-6.6-1.84-6.82-1.6-7.1-1.35-7.4-1.1-7.8-.82-8.27-.52-8.33-.17.02-.97z" stroke="#3a414a" stroke-width=".05" fill="#3a414a"/><path d="M539.87 139.54l-.02.95-.52-.03v-.95z" fill="#3a414a"/><path stroke="#3a414a" stroke-width=".05" fill="#3a414a"/><path d="M879 339.94L864.54 344l.37-9.27z" fill="#3a414a"/><path d="M880.52 340l-16.47 4.63.42-10.57zm-15.47 3.36l12.4-3.5-12.08-4.46z" stroke="#3a414a" stroke-width=".05" fill="#3a414a"/><use xlink:href="#g" transform="matrix(1,0,0,1,611.068380807645,229.15013573740063) translate(0 14.222222222222223)"/><use xlink:href="#h" transform="matrix(1,0,0,1,611.068380807645,229.15013573740063) translate(94.91358024691357 14.222222222222223)"/><use xlink:href="#x" transform="matrix(1,0,0,1,611.068380807645,229.15013573740063) translate(173.03703703703704 14.222222222222223)"/><use xlink:href="#j" transform="matrix(1,0,0,1,611.068380807645,229.15013573740063) translate(188.34567901234567 14.222222222222223)"/><path d="M1425.72-134a6 6 0 0 1 6-6h3.38a6 6 0 0 1 6 6V14a6 6 0 0 1-6 6h-3.38a6 6 0 0 1-6-6z" stroke="#3a414a"/><path d="M1242.08-119.84l167.57 54.75" stroke="#3a414a" fill="none"/><path d="M1242.24-120.3l-.3.9-.34-.1v-1z" stroke="#3a414a" stroke-width=".05" fill="#3a414a"/><path d="M1423.68-60.5l-15-.03 2.88-8.8z" stroke="#3a414a" fill="#3a414a"/><path d="M1242.08-.15l167.57-54.76" stroke="#3a414a" fill="none"/><path d="M1242.24.3l-.64.2v-1l.34-.1z" stroke="#3a414a" stroke-width=".05" fill="#3a414a"/><path d="M1423.68-59.5l-12.12 8.84-2.88-8.8z" stroke="#3a414a" fill="#3a414a"/><path d="M1301.9 119.6l114.04-166.1" stroke="#3a414a" fill="none"/><path d="M1302.3 119.85l-.7 1v-1.47z" stroke="#3a414a" stroke-width=".05" fill="#3a414a"/><path d="M1424.3-58.67l-4.25 14.4-7.64-5.26z" stroke="#3a414a" fill="#3a414a"/><path d="M1067.1-280c-8.83 0-16 7.16-16 16v48c0 8.84 7.17 16 16 16h188c8.84 0 16-7.16 16-16v-48c0-8.84-7.16-16-16-16z" stroke="#3a414a" fill="#fff"/><use xlink:href="#m" transform="matrix(1,0,0,1,1059.1036357282376,-272) translate(44.65432098765432 23.111111111111114)"/><use xlink:href="#y" transform="matrix(1,0,0,1,1059.1036357282376,-272) translate(4.006172839506178 49.77777777777778)"/><use xlink:href="#z" transform="matrix(1,0,0,1,1059.1036357282376,-272) translate(113.08024691358025 49.77777777777778)"/><path d="M1026.16-319.52h-9.54l-.88.06-.84.2-.8.34-.74.45-.66.56-.57.65-.45.74-.33.8-.2.84-.07.88v47.6l.07.87.2.84.33.8.46.74.56.66.66.56.74.45.8.33.84.2.88.07h33.48v.95h-33.5l-1-.07-1-.24-.94-.4-.86-.53-.78-.66-.66-.76-.53-.87-.4-.94-.22-1-.07-.98v-47.67l.08-1 .24-.98.4-.94.52-.87.66-.78.78-.66.86-.53.94-.4 1-.23 1-.08h9.56zm280.46-.88l1 .24.92.4.87.52.78.66.66.77.53.86.4.94.23 1 .08.98v47.67l-.08 1-.24.98-.4.94-.52.87-.66.77-.77.67-.86.53-.93.4-.98.23-1 .07H1288v-.95h17.6l.87-.06.84-.22.8-.33.75-.45.66-.56.57-.66.46-.74.33-.8.2-.85.07-.9v-47.58l-.07-.88-.2-.85-.33-.8-.46-.75-.56-.66-.65-.57-.74-.45-.8-.33-.83-.2-.88-.07h-9.56v-.96h9.58z" stroke="#3a414a" stroke-width=".05" fill="#3a414a"/><path d="M1050.6-259.9h-.5v-.95h.5z" fill="#3a414a"/><path stroke="#3a414a" stroke-width=".05" fill="#3a414a"/><path d="M1287.5-255.74l-14.28-4.63 14.27-4.64z" fill="#3a414a"/><path d="M1287.96-255.08l-16.28-5.3 16.28-5.28zm-13.2-5.3l12.25 4v-7.97z" stroke="#3a414a" stroke-width=".05" fill="#3a414a"/><use xlink:href="#t" transform="matrix(1,0,0,1,1026.165364123299,-330.6666666666667) translate(0.0049999999999954525 14.222222222222223)"/><use xlink:href="#u" transform="matrix(1,0,0,1,1026.165364123299,-330.6666666666667) translate(102.37537037037038 14.222222222222223)"/><use xlink:href="#A" transform="matrix(1,0,0,1,1026.165364123299,-330.6666666666667) translate(196.69635802469136 14.222222222222223)"/><path d="M1039.97-227.54L897.3-60.38" stroke="#3a414a" fill="none"/><path d="M1049.55-238.77l-5.73 13.86-7.05-6.03z" stroke="#3a414a" fill="#3a414a"/><path d="M897.68-60.08l-.7.8v-1.4z" stroke="#3a414a" stroke-width=".05" fill="#3a414a"/><path d="M1271.93-239.62l142.65 167.16" stroke="#3a414a" fill="none"/><path d="M1272.3-239.92l-.7.6v-1.4z" stroke="#3a414a" stroke-width=".05" fill="#3a414a"/><path d="M1424.17-61.23l-12.8-7.84 7.06-6.02z" stroke="#3a414a" fill="#3a414a"/><path d="M1170.92 340.48H1058v-.96h112.92zm304.1-400.88l.98.24.94.4.87.52.78.66.66.77.53.86.4.94.23 1 .07.98v388.04l-.07 1-.24.98-.4.94-.52.87-.66.78-.77.66-.86.53-.94.4-1 .23-.98.08h-104.88v-.96h104.84l.88-.06.85-.2.8-.34.75-.45.66-.56.57-.65.45-.74.33-.8.2-.84.08-.88V-53.98l-.07-.88-.2-.85-.34-.8-.45-.75-.56-.66-.65-.57-.74-.45-.8-.33-.84-.2-.88-.07h-31.88v-.95h31.92z" stroke="#3a414a" stroke-width=".05" fill="#3a414a"/><path d="M1442.12-59.52h-.52v-.95h.52z" fill="#3a414a"/><path stroke="#3a414a" stroke-width=".05" fill="#3a414a"/><path d="M1057.5 344.63L1043.2 340l14.27-4.63z" fill="#3a414a"/><path d="M1057.96 345.3l-16.28-5.3 16.28-5.3zm-13.2-5.3l12.25 3.98v-7.96z" stroke="#3a414a" stroke-width=".05" fill="#3a414a"/><use xlink:href="#g" transform="matrix(1,0,0,1,1170.9177225085443,329.3332829487182) translate(0 14.222222222222223)"/><use xlink:href="#h" transform="matrix(1,0,0,1,1170.9177225085443,329.3332829487182) translate(94.91358024691357 14.222222222222223)"/><use xlink:href="#x" transform="matrix(1,0,0,1,1170.9177225085443,329.3332829487182) translate(173.03703703703704 14.222222222222223)"/><use xlink:href="#j" transform="matrix(1,0,0,1,1170.9177225085443,329.3332829487182) translate(188.34567901234567 14.222222222222223)"/><path d="M-60-340c0 11.05-8.95 20-20 20s-20-8.95-20-20 8.95-20 20-20 20 8.95 20 20z" stroke="#3a414a"/><path d="M376-380c-8.84 0-16 7.16-16 16v48c0 8.84 7.16 16 16 16h128c8.84 0 16-7.16 16-16v-48c0-8.84-7.16-16-16-16z" stroke="#3a414a" fill="#fff"/><use xlink:href="#B" transform="matrix(1,0,0,1,368,-372) translate(67.67901234567901 36.44444444444444)"/><path d="M96-380c-8.84 0-16 7.16-16 16v48c0 8.84 7.16 16 16 16h188c8.84 0 16-7.16 16-16v-48c0-8.84-7.16-16-16-16z" stroke="#3a414a" fill="#fff"/><use xlink:href="#C" transform="matrix(1,0,0,1,88,-372) translate(20.487654320987644 36.44444444444444)"/><path d="M-37.52-339.52H-59v-.96h21.48zm100.64 0h-26.9v-.96h26.9z" stroke="#3a414a" stroke-width=".05" fill="#3a414a"/><path d="M77.88-340l-14.26 4.63v-9.26z" fill="#3a414a"/><path d="M79.42-340l-16.28 5.3v-10.6zm-15.33 3.98L76.34-340l-12.26-3.98z" stroke="#3a414a" stroke-width=".05" fill="#3a414a"/><path d="M-59-339.52h-.56l.06-.46-.02-.5h.53z" fill="#3a414a"/><path stroke="#3a414a" stroke-width=".05" fill="#3a414a"/><use xlink:href="#D" transform="matrix(1,0,0,1,-37.52260176220575,-350.6666666666667) translate(0 14.222222222222223)"/><path d="M301-340h42.12" stroke="#3a414a" fill="none"/><path d="M301-339.52h-.5v-.96h.5z" stroke="#3a414a" stroke-width=".05" fill="#3a414a"/><path d="M357.88-340l-14.26 4.63v-9.26z" stroke="#3a414a" fill="#3a414a"/><path d="M853.76 154.25l9.9 18.74 11.45 19.6 12.68 19.77 13.36 19.06 13.48 17.6 13.06 15.67 12.28 13.53 11.26 11.4 9.84 9.18-.65.7-9.84-9.18-11.3-11.44-12.3-13.55-13.08-15.7-13.5-17.64-13.4-19.1-12.68-19.8-11.47-19.65-9.92-18.78-2.86-6.02h1.05zM864.88-18.2l-1.42.26-2.93.63-2.7.7-2.5.76-2.33.82-2.17.87-2.03.92-1.92.96-1.8 1-1.7 1.05-1.63 1.1L840.2-8l-1.47 1.17-1.4 1.23-1.36 1.28-1.3 1.33-1.24 1.4-1.2 1.46-1.14 1.53-1.12 1.6-1.06 1.7-1.03 1.8-1 1.9-.93 2-.9 2.16-.84 2.3-.8 2.5-.73 2.66-.66 2.9-.6 3.14-.48 3.44-.38 3.77-.24 4.16-.08 4.6.14 5.14.38 5.74.72 6.47 1.1 7.3 1.63 8.27 2.26 9.43 3.04 10.75 4.05 12.25 5.24 13.9 2.57 6.05h-1.02l-2.42-5.7-5.26-13.93-4.06-12.3-3.07-10.8-2.27-9.46-1.63-8.32-1.12-7.33-.7-6.5-.4-5.8-.13-5.16.07-4.64.24-4.2.38-3.8.5-3.5.6-3.18.66-2.93.75-2.72.8-2.52.86-2.34.9-2.2.96-2.05 1-1.94 1.04-1.82 1.1-1.72L830.3.84l1.17-1.56 1.2-1.5L834-3.63 835.3-5l1.38-1.3 1.44-1.25 1.5-1.2 1.58-1.16 1.65-1.12 1.75-1.07 1.84-1 1.95-1 2.06-.92 2.2-.9 2.37-.82 2.54-.78 2.74-.7 2.98-.66 1.44-.25z" stroke="#3a414a" stroke-width=".05" fill="#3a414a"/><path d="M961.8 299.5h-1.4l.65-.7z" fill="#3a414a"/><path stroke="#3a414a" stroke-width=".05" fill="#3a414a"/><path d="M879.5-19.87l-13.85 5.8-.76-9.25z" fill="#3a414a"/><path d="M881.02-20l-15.8 6.6-.85-10.53zm-14.95 5.23l11.9-4.97-12.55-2.96z" stroke="#3a414a" stroke-width=".05" fill="#3a414a"/><g><use xlink:href="#g" transform="matrix(1,0,0,1,746.3732751530526,127.31724904640289) translate(0 14.222222222222223)"/><use xlink:href="#h" transform="matrix(1,0,0,1,746.3732751530526,127.31724904640289) translate(94.91358024691357 14.222222222222223)"/><use xlink:href="#i" transform="matrix(1,0,0,1,746.3732751530526,127.31724904640289) translate(173.03703703703704 14.222222222222223)"/><use xlink:href="#j" transform="matrix(1,0,0,1,746.3732751530526,127.31724904640289) translate(188.34567901234567 14.222222222222223)"/></g><path d="M-84-100c-8.84 0-16 7.16-16 16v48c0 8.84 7.16 16 16 16H44c8.84 0 16-7.16 16-16v-48c0-8.84-7.16-16-16-16z" stroke="#3a414a" fill="#fff"/><g><use xlink:href="#B" transform="matrix(1,0,0,1,-92,-92) translate(67.67901234567901 36.44444444444444)"/></g><path d="M276-100c-8.84 0-16 7.16-16 16v48c0 8.84 7.16 16 16 16h128c8.84 0 16-7.16 16-16v-48c0-8.84-7.16-16-16-16z" stroke="#3a414a" fill="#fff"/><g><use xlink:href="#b" transform="matrix(1,0,0,1,268,-92) translate(28.203703703703702 23.111111111111114)"/><use xlink:href="#c" transform="matrix(1,0,0,1,268,-92) translate(34.870370370370374 49.77777777777778)"/></g><path d="M74.6-59.52H61v-.95h13.6zm168.52 0H222.5v-.95h20.62z" stroke="#3a414a" stroke-width=".05" fill="#3a414a"/><path d="M61-59.52h-.5v-.95h.5z" fill="#3a414a"/><path stroke="#3a414a" stroke-width=".05" fill="#3a414a"/><path d="M257.88-60l-14.26 4.63v-9.27z" fill="#3a414a"/><path d="M259.42-60l-16.28 5.3v-10.6zm-15.33 3.98L256.34-60l-12.26-3.98z" stroke="#3a414a" stroke-width=".05" fill="#3a414a"/><g><use xlink:href="#E" transform="matrix(1,0,0,1,74.58822150336626,-70.66666666666667) translate(0 14.222222222222223)"/><use xlink:href="#f" transform="matrix(1,0,0,1,74.58822150336626,-70.66666666666667) translate(84.49382716049382 14.222222222222223)"/></g><path d="M-84-240c-8.84 0-16 7.16-16 16v48c0 8.84 7.16 16 16 16H44c8.84 0 16-7.16 16-16v-48c0-8.84-7.16-16-16-16z" stroke="#3a414a" fill="#fff"/><g><use xlink:href="#B" transform="matrix(1,0,0,1,-92,-232) translate(67.67901234567901 36.44444444444444)"/></g><path d="M300-200c0 11.05-8.95 20-20 20s-20-8.95-20-20 8.95-20 20-20 20 8.95 20 20z" stroke="#3a414a" fill="#fff"/><path d="M292-200c0 6.63-5.37 12-12 12s-12-5.37-12-12 5.37-12 12-12 12 5.37 12 12z" stroke="#3a414a"/><path d="M105.88-199.53H61v-.94h44.88zm137.24 0h-29v-.94h29z" stroke="#3a414a" stroke-width=".05" fill="#3a414a"/><path d="M61-199.53h-.5v-.94h.5z" fill="#3a414a"/><path stroke="#3a414a" stroke-width=".05" fill="#3a414a"/><path d="M257.88-200l-14.26 4.63v-9.26z" fill="#3a414a"/><path d="M259.42-200l-16.28 5.3v-10.6zm-15.33 3.98l12.25-3.98-12.26-3.98z" stroke="#3a414a" stroke-width=".05" fill="#3a414a"/><g><use xlink:href="#F" transform="matrix(1,0,0,1,105.87638728292083,-210.66666666666666) translate(0 14.222222222222223)"/><use xlink:href="#G" transform="matrix(1,0,0,1,105.87638728292083,-210.66666666666666) translate(36.04938271604939 14.222222222222223)"/></g><defs><path fill="#3a414a" d="M30-248c87 1 191-15 191 75 0 78-77 80-158 76V0H30v-248zm33 125c57 0 124 11 124-50 0-59-68-47-124-48v98" id="H"/><path fill="#3a414a" d="M141-36C126-15 110 5 73 4 37 3 15-17 15-53c-1-64 63-63 125-63 3-35-9-54-41-54-24 1-41 7-42 31l-33-3c5-37 33-52 76-52 45 0 72 20 72 64v82c-1 20 7 32 28 27v20c-31 9-61-2-59-35zM48-53c0 20 12 33 32 33 41-3 63-29 60-74-43 2-92-5-92 41" id="I"/><path fill="#3a414a" d="M152-53C154 19 21 22 9-41l28-8c5 36 84 42 81-4-1-29-28-34-58-35v-24c28 0 55-4 55-30 0-19-14-29-34-28-20 0-35 7-38 25l-28-3c4-33 30-46 66-46 37 0 66 15 66 50 0 27-20 41-44 44 27 5 48 17 49 47" id="J"/><path fill="#3a414a" d="M100-194c62-1 85 37 85 99 1 63-27 99-86 99S16-35 15-95c0-66 28-99 85-99zM99-20c44 1 53-31 53-75 0-43-8-75-51-75s-53 32-53 75 10 74 51 75" id="K"/><path fill="#3a414a" d="M121-190v23H57V0H25v-190h96" id="L"/><path fill="#3a414a" d="M115-194c55 1 70 41 70 98S169 2 115 4C84 4 66-9 55-30l1 105H24l-1-265h31l2 30c10-21 28-34 59-34zm-8 174c40 0 45-34 45-75s-6-73-45-74c-42 0-51 32-51 76 0 43 10 73 51 73" id="M"/><path fill="#3a414a" d="M100-194c63 0 86 42 84 106H49c0 40 14 67 53 68 26 1 43-12 49-29l28 8c-11 28-37 45-77 45C44 4 14-33 15-96c1-61 26-98 85-98zm52 81c6-60-76-77-97-28-3 7-6 17-6 28h103" id="N"/><path fill="#3a414a" d="M176-55C176 11 93 0 25 0v-190c61 3 142-15 144 47 1 29-21 35-39 44 27 3 46 16 46 44zm-34 0c0-41-47-30-85-32v64c38-1 85 8 85-32zm-6-83c0-36-44-26-79-28v56c34-2 79 8 79-28" id="O"/><path fill="#3a414a" d="M57-190v80h85v-80h32V0h-32v-87H57V0H25v-190h32" id="P"/><path fill="#3a414a" d="M56-190L54-37l88-153h34V0h-30l2-153L59 0H25v-190h31" id="Q"/><g id="a"><use transform="matrix(0.06172839506172839,0,0,0.06172839506172839,0,0)" xlink:href="#H"/><use transform="matrix(0.06172839506172839,0,0,0.06172839506172839,14.074074074074073,0)" xlink:href="#I"/><use transform="matrix(0.06172839506172839,0,0,0.06172839506172839,26.17283950617284,0)" xlink:href="#J"/><use transform="matrix(0.06172839506172839,0,0,0.06172839506172839,36.11111111111111,0)" xlink:href="#K"/><use transform="matrix(0.06172839506172839,0,0,0.06172839506172839,48.456790123456784,0)" xlink:href="#L"/><use transform="matrix(0.06172839506172839,0,0,0.06172839506172839,56.5432098765432,0)" xlink:href="#M"/><use transform="matrix(0.06172839506172839,0,0,0.06172839506172839,68.88888888888889,0)" xlink:href="#N"/><use transform="matrix(0.06172839506172839,0,0,0.06172839506172839,81.23456790123457,0)" xlink:href="#O"/><use transform="matrix(0.06172839506172839,0,0,0.06172839506172839,92.77777777777779,0)" xlink:href="#I"/><use transform="matrix(0.06172839506172839,0,0,0.06172839506172839,105.12345679012347,0)" xlink:href="#P"/><use transform="matrix(0.06172839506172839,0,0,0.06172839506172839,117.3456790123457,0)" xlink:href="#Q"/><use transform="matrix(0.06172839506172839,0,0,0.06172839506172839,129.75308641975312,0)" xlink:href="#N"/></g><path fill="#3a414a" d="M140-251c81 0 123 46 123 126C263-46 219 4 140 4 59 4 17-45 17-125s42-126 123-126zm0 227c63 0 89-41 89-101s-29-99-89-99c-61 0-89 39-89 99S79-25 140-24" id="R"/><path fill="#3a414a" d="M6-190h153v23H98V0H67v-167H6v-23" id="S"/><path fill="#3a414a" d="M75-87c-4 1-14 3-19 3V0H24v-190h32v83c26-2 31-21 43-41l26-42h33l-61 86L159 0h-35" id="T"/><path fill="#3a414a" d="M170-56C169 10 92 0 25 0v-190h32v80c58-2 114-1 113 54zm-34 0c0-38-42-32-79-32v66c38 0 79 5 79-34zm66 56v-190h32V0h-32" id="U"/><g id="b"><use transform="matrix(0.06172839506172839,0,0,0.06172839506172839,0,0)" xlink:href="#R"/><use transform="matrix(0.06172839506172839,0,0,0.06172839506172839,17.28395061728395,0)" xlink:href="#S"/><use transform="matrix(0.06172839506172839,0,0,0.06172839506172839,27.407407407407405,0)" xlink:href="#T"/><use transform="matrix(0.06172839506172839,0,0,0.06172839506172839,37.09876543209876,0)" xlink:href="#M"/><use transform="matrix(0.06172839506172839,0,0,0.06172839506172839,49.444444444444436,0)" xlink:href="#U"/><use transform="matrix(0.06172839506172839,0,0,0.06172839506172839,65.37037037037037,0)" xlink:href="#S"/><use transform="matrix(0.06172839506172839,0,0,0.06172839506172839,75.24691358024691,0)" xlink:href="#I"/></g><path fill="#3a414a" d="M147-167H93C83-118 77-63 59-23h88v-144zM24-23c26-44 31-102 41-167h113v167h26v95h-29V0H32v72H4v-95h20" id="V"/><path fill="#3a414a" d="M57-190v167h83v-167h32v167h26v95h-29V0H25v-190h32" id="W"/><g id="c"><use transform="matrix(0.06172839506172839,0,0,0.06172839506172839,0,0)" xlink:href="#V"/><use transform="matrix(0.06172839506172839,0,0,0.06172839506172839,12.962962962962962,0)" xlink:href="#O"/><use transform="matrix(0.06172839506172839,0,0,0.06172839506172839,24.50617283950617,0)" xlink:href="#N"/><use transform="matrix(0.06172839506172839,0,0,0.06172839506172839,36.85185185185185,0)" xlink:href="#M"/><use transform="matrix(0.06172839506172839,0,0,0.06172839506172839,49.197530864197525,0)" xlink:href="#W"/><use transform="matrix(0.06172839506172839,0,0,0.06172839506172839,61.913580246913575,0)" xlink:href="#I"/></g><path fill="#3a414a" d="M200-71c5 87-137 96-174 38-6-8-10-16-14-25l29-13c12 25 29 48 67 48 33 0 58-14 58-48 0-41-36-45-82-44v-26c42 2 76-5 75-43-1-27-20-40-49-40-34 0-53 18-62 43l-31-10c14-38 43-60 94-60 47 0 79 19 81 64 1 36-22 50-49 58 33 5 55 22 57 58" id="X"/><g id="d"><use transform="matrix(0.06172839506172839,0,0,0.06172839506172839,0,0)" xlink:href="#X"/><use transform="matrix(0.06172839506172839,0,0,0.06172839506172839,13.395061728395062,0)" xlink:href="#I"/><use transform="matrix(0.06172839506172839,0,0,0.06172839506172839,25.74074074074074,0)" xlink:href="#T"/><use transform="matrix(0.06172839506172839,0,0,0.06172839506172839,35.4320987654321,0)" xlink:href="#M"/><use transform="matrix(0.06172839506172839,0,0,0.06172839506172839,47.77777777777778,0)" xlink:href="#U"/><use transform="matrix(0.06172839506172839,0,0,0.06172839506172839,63.7037037037037,0)" xlink:href="#S"/><use transform="matrix(0.06172839506172839,0,0,0.06172839506172839,73.58024691358025,0)" xlink:href="#I"/></g><path fill="#333" d="M209-70c3 90-151 93-187 34-5-9-10-18-14-29l46-16c10 24 24 44 58 44 27 0 46-10 46-35-1-32-31-34-68-34v-40c35 1 63-3 63-34 0-23-16-34-41-33-31 0-43 20-51 43l-47-10c14-43 42-71 99-71 51 0 90 18 90 64 0 34-20 53-50 59 32 5 56 21 56 58" id="Y"/><path fill="#333" d="M133-34C117-15 103 5 69 4 32 3 11-16 11-54c-1-60 55-63 116-61 1-26-3-47-28-47-18 1-26 9-28 27l-52-2c7-38 36-58 82-57s74 22 75 68l1 82c-1 14 12 18 25 15v27c-30 8-71 5-69-32zm-48 3c29 0 43-24 42-57-32 0-66-3-65 30 0 17 8 27 23 27" id="Z"/><path fill="#333" d="M25-190h50v81c22-2 24-18 33-36l22-45h49c-19 30-32 64-55 90L180 0h-50L89-81c-3 2-9 2-14 2V0H25v-190" id="aa"/><path fill="#333" d="M135-194c53 0 70 44 70 98 0 56-19 98-73 100-31 1-45-17-59-34 3 33 2 69 2 105H25l-1-265h48c2 10 0 23 3 31 11-24 29-35 60-35zM114-30c33 0 39-31 40-66 0-38-9-64-40-64-56 0-55 130 0 130" id="ab"/><path fill="#333" d="M206-58C204 19 101-3 25 0v-190h50v76c63-1 132-4 131 56zm-50 0c0-33-48-23-81-25v52c34-2 81 8 81-27zm77 58v-190h49V0h-49" id="ac"/><path fill="#333" d="M154 0v-157H99C89-107 89-44 65-9 54 6 26 5 4 1v-33c46 5 36-55 46-98 6-25 3-25 8-60h146V0h-50" id="ad"/><path fill="#333" d="M71-190L68-54l78-136h50V0h-45l3-136L78 0H25v-190h46" id="ae"/><g id="e"><use transform="matrix(0.04938271604938272,0,0,0.04938271604938272,0,0)" xlink:href="#Y"/><use transform="matrix(0.04938271604938272,0,0,0.04938271604938272,11.111111111111112,0)" xlink:href="#Z"/><use transform="matrix(0.04938271604938272,0,0,0.04938271604938272,20.98765432098766,0)" xlink:href="#aa"/><use transform="matrix(0.04938271604938272,0,0,0.04938271604938272,29.876543209876544,0)" xlink:href="#ab"/><use transform="matrix(0.04938271604938272,0,0,0.04938271604938272,40.69135802469136,0)" xlink:href="#ac"/><use transform="matrix(0.04938271604938272,0,0,0.04938271604938272,55.851851851851855,0)" xlink:href="#ad"/><use transform="matrix(0.04938271604938272,0,0,0.04938271604938272,67.11111111111111,0)" xlink:href="#ae"/></g><path fill="#333" d="M147-157h-42c-8 43-13 90-29 124h71v-124zM24-33c25-41 30-96 40-157h132v157h26V72h-43V0H46v72H2V-33h22" id="af"/><path fill="#333" d="M207-55C206 19 99-3 25 0v-190c69 5 172-21 177 47 2 30-24 34-43 44 27 3 48 13 48 44zm-50-2c0-36-48-24-82-26v52c34-2 82 10 82-26zm-7-80c0-31-45-20-75-22v45c31-3 75 10 75-23" id="ag"/><path fill="#333" d="M185-48c-13 30-37 53-82 52C43 2 14-33 14-96s30-98 90-98c62 0 83 45 84 108H66c0 31 8 55 39 56 18 0 30-7 34-22zm-45-69c5-46-57-63-70-21-2 6-4 13-4 21h74" id="ah"/><path fill="#333" d="M25 0v-190h50v157h68v-157h49v157h26V72h-43V0H25" id="ai"/><path fill="#333" d="M123 10C108 53 80 86 19 72V37c35 8 53-11 59-39L3-190h52l48 148c12-52 28-100 44-148h51" id="aj"/><g id="f"><use transform="matrix(0.04938271604938272,0,0,0.04938271604938272,0,0)" xlink:href="#af"/><use transform="matrix(0.04938271604938272,0,0,0.04938271604938272,11.25925925925926,0)" xlink:href="#ag"/><use transform="matrix(0.04938271604938272,0,0,0.04938271604938272,21.925925925925927,0)" xlink:href="#ah"/><use transform="matrix(0.04938271604938272,0,0,0.04938271604938272,31.802469135802472,0)" xlink:href="#ab"/><use transform="matrix(0.04938271604938272,0,0,0.04938271604938272,42.617283950617285,0)" xlink:href="#ai"/><use transform="matrix(0.04938271604938272,0,0,0.04938271604938272,53.53086419753087,0)" xlink:href="#aj"/></g><path fill="#333" d="M24-248c93 1 206-16 204 79-1 75-69 88-152 82V0H24v-248zm52 121c47 0 100 7 100-41 0-47-54-39-100-39v80" id="ak"/><path fill="#333" d="M140-190v33H75V0H25v-190h115" id="al"/><path fill="#333" d="M15-136c0-71 99-51 170-54V0h-50v-76h-33L54 0H0l56-83c-25-6-41-23-41-53zm51 3c0 32 38 26 70 26v-52c-31 1-70-6-70 26" id="am"/><path fill="#333" d="M10-190h156v33h-53V0H63v-157H10v-33" id="an"/><path fill="#333" d="M110-194c64 0 96 36 96 99 0 64-35 99-97 99-61 0-95-36-95-99 0-62 34-99 96-99zm-1 164c35 0 45-28 45-65 0-40-10-65-43-65-34 0-45 26-45 65 0 36 10 65 43 65" id="ao"/><g id="g"><use transform="matrix(0.04938271604938272,0,0,0.04938271604938272,0,0)" xlink:href="#ak"/><use transform="matrix(0.04938271604938272,0,0,0.04938271604938272,11.407407407407408,0)" xlink:href="#ah"/><use transform="matrix(0.04938271604938272,0,0,0.04938271604938272,21.283950617283953,0)" xlink:href="#al"/><use transform="matrix(0.04938271604938272,0,0,0.04938271604938272,28.641975308641978,0)" xlink:href="#aj"/><use transform="matrix(0.04938271604938272,0,0,0.04938271604938272,38.27160493827161,0)" xlink:href="#ad"/><use transform="matrix(0.04938271604938272,0,0,0.04938271604938272,49.53086419753087,0)" xlink:href="#am"/><use transform="matrix(0.04938271604938272,0,0,0.04938271604938272,59.90123456790124,0)" xlink:href="#an"/><use transform="matrix(0.04938271604938272,0,0,0.04938271604938272,68.34567901234568,0)" xlink:href="#ao"/><use transform="matrix(0.04938271604938272,0,0,0.04938271604938272,79.1604938271605,0)" xlink:href="#ab"/></g><path fill="#333" d="M184-268c7 76-131 80-142 15-1-5-1-10-1-15h39c1 22 10 35 32 35s31-13 32-35h40zM71-190L68-54l78-136h50V0h-45l3-136L78 0H25v-190h46" id="ap"/><path fill="#333" d="M153 0h-38L66-156 68 0H25v-190h66c14 50 33 95 43 149 9-54 29-100 43-149h64V0h-43l3-156" id="aq"/><g id="h"><use transform="matrix(0.04938271604938272,0,0,0.04938271604938272,0,0)" xlink:href="#an"/><use transform="matrix(0.04938271604938272,0,0,0.04938271604938272,8.69135802469136,0)" xlink:href="#Z"/><use transform="matrix(0.04938271604938272,0,0,0.04938271604938272,18.567901234567906,0)" xlink:href="#ap"/><use transform="matrix(0.04938271604938272,0,0,0.04938271604938272,29.481481481481488,0)" xlink:href="#aq"/><use transform="matrix(0.04938271604938272,0,0,0.04938271604938272,42.61728395061729,0)" xlink:href="#ah"/><use transform="matrix(0.04938271604938272,0,0,0.04938271604938272,52.49382716049383,0)" xlink:href="#ab"/><use transform="matrix(0.04938271604938272,0,0,0.04938271604938272,63.30864197530866,0)" xlink:href="#Z"/></g><path fill="#333" d="M15-22v-40l146-57-146-57v-40l181 69v56" id="ar"/><use transform="matrix(0.04938271604938272,0,0,0.04938271604938272,0,0)" xlink:href="#ar" id="i"/><path fill="#333" d="M101-251c68 0 84 54 84 127C185-50 166 4 99 4S15-52 14-124c-1-75 17-127 87-127zm-1 216c37-5 36-46 36-89s4-89-36-89c-39 0-36 45-36 89 0 43-3 85 36 89" id="as"/><use transform="matrix(0.04938271604938272,0,0,0.04938271604938272,0,0)" xlink:href="#as" id="j"/><path fill="#3a414a" d="M188-248v28H63V0H30v-248h158" id="at"/><g id="k"><use transform="matrix(0.06172839506172839,0,0,0.06172839506172839,0,0)" xlink:href="#at"/><use transform="matrix(0.06172839506172839,0,0,0.06172839506172839,10.493827160493828,0)" xlink:href="#K"/><use transform="matrix(0.06172839506172839,0,0,0.06172839506172839,22.839506172839506,0)" xlink:href="#M"/><use transform="matrix(0.06172839506172839,0,0,0.06172839506172839,35.18518518518518,0)" xlink:href="#Q"/><use transform="matrix(0.06172839506172839,0,0,0.06172839506172839,47.59259259259259,0)" xlink:href="#S"/></g><path fill="#3a414a" d="M153 0v-167H87C74-108 81-27 38 0 29 5 12 6 2 1v-22c51 4 39-64 49-112 5-25 4-25 8-57h126V0h-32" id="au"/><path fill="#3a414a" d="M138 0h-27L54-167c3 53 2 111 2 167H25v-190h49c16 56 39 106 51 166 11-61 34-110 50-166h48V0h-31l2-168" id="av"/><path fill="#3a414a" d="M170-190V0h-32v-167H57V0H25v-190h145" id="aw"/><g id="l"><use transform="matrix(0.06172839506172839,0,0,0.06172839506172839,0,0)" xlink:href="#au"/><use transform="matrix(0.06172839506172839,0,0,0.06172839506172839,12.962962962962962,0)" xlink:href="#I"/><use transform="matrix(0.06172839506172839,0,0,0.06172839506172839,25.30864197530864,0)" xlink:href="#av"/><use transform="matrix(0.06172839506172839,0,0,0.06172839506172839,40.55555555555555,0)" xlink:href="#aw"/><use transform="matrix(0.06172839506172839,0,0,0.06172839506172839,52.53086419753086,0)" xlink:href="#I"/></g><path fill="#3a414a" d="M160-131c35 5 61 23 61 61C221 17 115-2 30 0v-248c76 3 177-17 177 60 0 33-19 50-47 57zm-97-11c50-1 110 9 110-42 0-47-63-36-110-37v79zm0 115c55-2 124 14 124-45 0-56-70-42-124-44v89" id="ax"/><path fill="#3a414a" d="M25 0v-190h32v167h71v-167h31v167h71v-167h32v167h26v95h-29V0H25" id="ay"/><path fill="#3a414a" d="M96-169c-40 0-48 33-48 73s9 75 48 75c24 0 41-14 43-38l32 2c-6 37-31 61-74 61-59 0-76-41-82-99-10-93 101-131 147-64 4 7 5 14 7 22l-32 3c-4-21-16-35-41-35" id="az"/><path fill="#3a414a" d="M20-138c-1-64 85-51 150-52V0h-32v-81H94L39 0H3l60-83c-28-5-43-24-43-55zm33 3c0 40 46 33 85 33v-66c-39 0-85-6-85 33" id="aA"/><g id="m"><use transform="matrix(0.06172839506172839,0,0,0.06172839506172839,0,0)" xlink:href="#ax"/><use transform="matrix(0.06172839506172839,0,0,0.06172839506172839,14.814814814814813,0)" xlink:href="#M"/><use transform="matrix(0.06172839506172839,0,0,0.06172839506172839,27.160493827160494,0)" xlink:href="#I"/><use transform="matrix(0.06172839506172839,0,0,0.06172839506172839,39.50617283950617,0)" xlink:href="#ay"/><use transform="matrix(0.06172839506172839,0,0,0.06172839506172839,57.77777777777777,0)" xlink:href="#I"/><use transform="matrix(0.06172839506172839,0,0,0.06172839506172839,70.12345679012346,0)" xlink:href="#N"/><use transform="matrix(0.06172839506172839,0,0,0.06172839506172839,81.72839506172839,0)" xlink:href="#S"/><use transform="matrix(0.06172839506172839,0,0,0.06172839506172839,91.60493827160494,0)" xlink:href="#az"/><use transform="matrix(0.06172839506172839,0,0,0.06172839506172839,102.71604938271605,0)" xlink:href="#aA"/></g><g id="n"><use transform="matrix(0.06172839506172839,0,0,0.06172839506172839,0,0)" xlink:href="#S"/><use transform="matrix(0.06172839506172839,0,0,0.06172839506172839,9.876543209876543,0)" xlink:href="#I"/><use transform="matrix(0.06172839506172839,0,0,0.06172839506172839,22.22222222222222,0)" xlink:href="#M"/><use transform="matrix(0.06172839506172839,0,0,0.06172839506172839,34.5679012345679,0)" xlink:href="#N"/><use transform="matrix(0.06172839506172839,0,0,0.06172839506172839,46.172839506172835,0)" xlink:href="#au"/><use transform="matrix(0.06172839506172839,0,0,0.06172839506172839,59.1358024691358,0)" xlink:href="#T"/><use transform="matrix(0.06172839506172839,0,0,0.06172839506172839,69.32098765432099,0)" xlink:href="#I"/></g><path fill="#3a414a" d="M240 0l2-218c-23 76-54 145-80 218h-23L58-218 59 0H30v-248h44l77 211c21-75 51-140 76-211h43V0h-30" id="aB"/><g id="o"><use transform="matrix(0.06172839506172839,0,0,0.06172839506172839,0,0)" xlink:href="#aB"/><use transform="matrix(0.06172839506172839,0,0,0.06172839506172839,18.456790123456788,0)" xlink:href="#Q"/><use transform="matrix(0.06172839506172839,0,0,0.06172839506172839,30.864197530864196,0)" xlink:href="#T"/><use transform="matrix(0.06172839506172839,0,0,0.06172839506172839,40.55555555555556,0)" xlink:href="#M"/><use transform="matrix(0.06172839506172839,0,0,0.06172839506172839,52.901234567901234,0)" xlink:href="#K"/><use transform="matrix(0.06172839506172839,0,0,0.06172839506172839,65.24691358024691,0)" xlink:href="#O"/><use transform="matrix(0.06172839506172839,0,0,0.06172839506172839,76.79012345679013,0)" xlink:href="#K"/><use transform="matrix(0.06172839506172839,0,0,0.06172839506172839,88.64197530864199,0)" xlink:href="#au"/><use transform="matrix(0.06172839506172839,0,0,0.06172839506172839,101.60493827160495,0)" xlink:href="#P"/><use transform="matrix(0.06172839506172839,0,0,0.06172839506172839,113.82716049382717,0)" xlink:href="#U"/></g><path fill="#3a414a" d="M179-190L93 31C79 59 56 82 12 73V49c39 6 53-20 64-50L1-190h34L92-34l54-156h33" id="aC"/><path fill="#3a414a" d="M175-194c59 1 80 36 80 99 0 62-25 99-81 99-54 0-76-36-78-91H57V0H25v-190h32v80h39c4-56 30-84 79-84zm-1 174c42 1 48-34 48-75 0-42-6-75-46-75-41-1-47 34-47 75s6 74 45 75" id="aD"/><g id="p"><use transform="matrix(0.06172839506172839,0,0,0.06172839506172839,0,0)" xlink:href="#O"/><use transform="matrix(0.06172839506172839,0,0,0.06172839506172839,11.54320987654321,0)" xlink:href="#K"/><use transform="matrix(0.06172839506172839,0,0,0.06172839506172839,23.395061728395063,0)" xlink:href="#au"/><use transform="matrix(0.06172839506172839,0,0,0.06172839506172839,36.358024691358025,0)" xlink:href="#P"/><use transform="matrix(0.06172839506172839,0,0,0.06172839506172839,48.58024691358025,0)" xlink:href="#aC"/><use transform="matrix(0.06172839506172839,0,0,0.06172839506172839,59.691358024691354,0)" xlink:href="#aD"/><use transform="matrix(0.06172839506172839,0,0,0.06172839506172839,75.86419753086419,0)" xlink:href="#S"/><use transform="matrix(0.06172839506172839,0,0,0.06172839506172839,85.74074074074073,0)" xlink:href="#az"/><use transform="matrix(0.06172839506172839,0,0,0.06172839506172839,96.85185185185185,0)" xlink:href="#aA"/></g><use transform="matrix(0.06172839506172839,0,0,0.06172839506172839,0,0)" xlink:href="#az" id="q"/><path fill="#3a414a" d="M165-267c8 67-110 75-125 20-2-7-4-13-4-20h29c1 23 13 35 36 35s34-13 36-35h28zM56-190L54-37l88-153h34V0h-30l2-153L59 0H25v-190h31" id="aE"/><g id="r"><use transform="matrix(0.06172839506172839,0,0,0.06172839506172839,0,0)" xlink:href="#J"/><use transform="matrix(0.06172839506172839,0,0,0.06172839506172839,10.185185185185185,0)" xlink:href="#I"/><use transform="matrix(0.06172839506172839,0,0,0.06172839506172839,22.530864197530864,0)" xlink:href="#V"/><use transform="matrix(0.06172839506172839,0,0,0.06172839506172839,35.49382716049382,0)" xlink:href="#I"/><use transform="matrix(0.06172839506172839,0,0,0.06172839506172839,47.8395061728395,0)" xlink:href="#P"/><use transform="matrix(0.06172839506172839,0,0,0.06172839506172839,60.06172839506172,0)" xlink:href="#P"/><use transform="matrix(0.06172839506172839,0,0,0.06172839506172839,72.28395061728395,0)" xlink:href="#K"/><use transform="matrix(0.06172839506172839,0,0,0.06172839506172839,84.62962962962963,0)" xlink:href="#aE"/></g><path fill="#3a414a" d="M173-56C173 11 92 0 25 0v-190h32v80c58-2 117-2 116 54zm-34 0c0-39-44-31-82-32v66c39 0 82 6 82-34" id="aF"/><g id="s"><use transform="matrix(0.06172839506172839,0,0,0.06172839506172839,0,0)" xlink:href="#av"/><use transform="matrix(0.06172839506172839,0,0,0.06172839506172839,15.246913580246913,0)" xlink:href="#K"/><use transform="matrix(0.06172839506172839,0,0,0.06172839506172839,27.59259259259259,0)" xlink:href="#ay"/><use transform="matrix(0.06172839506172839,0,0,0.06172839506172839,45.864197530864196,0)" xlink:href="#P"/><use transform="matrix(0.06172839506172839,0,0,0.06172839506172839,58.08641975308642,0)" xlink:href="#K"/><use transform="matrix(0.06172839506172839,0,0,0.06172839506172839,70.4320987654321,0)" xlink:href="#az"/><use transform="matrix(0.06172839506172839,0,0,0.06172839506172839,81.54320987654322,0)" xlink:href="#S"/><use transform="matrix(0.06172839506172839,0,0,0.06172839506172839,91.66666666666667,0)" xlink:href="#aF"/><use transform="matrix(0.06172839506172839,0,0,0.06172839506172839,103.20987654320987,0)" xlink:href="#aD"/></g><path fill="#333" d="M185 0v-205H76V0H24v-248h211V0h-50" id="aG"/><path fill="#333" d="M75-190v75h68v-75h49V0h-49v-81H75V0H25v-190h50" id="aH"/><g id="t"><use transform="matrix(0.04938271604938272,0,0,0.04938271604938272,0,0)" xlink:href="#aG"/><use transform="matrix(0.04938271604938272,0,0,0.04938271604938272,12.740740740740742,0)" xlink:href="#ao"/><use transform="matrix(0.04938271604938272,0,0,0.04938271604938272,23.555555555555557,0)" xlink:href="#ag"/><use transform="matrix(0.04938271604938272,0,0,0.04938271604938272,34.22222222222222,0)" xlink:href="#ah"/><use transform="matrix(0.04938271604938272,0,0,0.04938271604938272,44.098765432098766,0)" xlink:href="#ab"/><use transform="matrix(0.04938271604938272,0,0,0.04938271604938272,54.91358024691358,0)" xlink:href="#aH"/><use transform="matrix(0.04938271604938272,0,0,0.04938271604938272,65.62962962962963,0)" xlink:href="#aj"/><use transform="matrix(0.04938271604938272,0,0,0.04938271604938272,75.25925925925927,0)" xlink:href="#ad"/><use transform="matrix(0.04938271604938272,0,0,0.04938271604938272,86.51851851851853,0)" xlink:href="#ae"/></g><g id="u"><use transform="matrix(0.04938271604938272,0,0,0.04938271604938272,0,0)" xlink:href="#ab"/><use transform="matrix(0.04938271604938272,0,0,0.04938271604938272,10.814814814814815,0)" xlink:href="#ah"/><use transform="matrix(0.04938271604938272,0,0,0.04938271604938272,20.69135802469136,0)" xlink:href="#al"/><use transform="matrix(0.04938271604938272,0,0,0.04938271604938272,28.049382716049386,0)" xlink:href="#aj"/><use transform="matrix(0.04938271604938272,0,0,0.04938271604938272,37.67901234567901,0)" xlink:href="#ad"/><use transform="matrix(0.04938271604938272,0,0,0.04938271604938272,48.93827160493827,0)" xlink:href="#am"/><use transform="matrix(0.04938271604938272,0,0,0.04938271604938272,59.308641975308646,0)" xlink:href="#an"/><use transform="matrix(0.04938271604938272,0,0,0.04938271604938272,67.75308641975309,0)" xlink:href="#ao"/><use transform="matrix(0.04938271604938272,0,0,0.04938271604938272,78.5679012345679,0)" xlink:href="#ab"/></g><path fill="#333" d="M25 0v-190h46v157h56v-157h46v157h56v-157h46v157h25V72h-43V0H25" id="aI"/><path fill="#333" d="M190-63c-7 42-38 67-86 67-59 0-84-38-90-98-12-110 154-137 174-36l-49 2c-2-19-15-32-35-32-30 0-35 28-38 64-6 74 65 87 74 30" id="aJ"/><g id="v"><use transform="matrix(0.04938271604938272,0,0,0.04938271604938272,0,0)" xlink:href="#aq"/><use transform="matrix(0.04938271604938272,0,0,0.04938271604938272,12.88888888888889,0)" xlink:href="#ao"/><use transform="matrix(0.04938271604938272,0,0,0.04938271604938272,23.703703703703706,0)" xlink:href="#aI"/><use transform="matrix(0.04938271604938272,0,0,0.04938271604938272,38.66666666666667,0)" xlink:href="#aH"/><use transform="matrix(0.04938271604938272,0,0,0.04938271604938272,49.38271604938272,0)" xlink:href="#ao"/><use transform="matrix(0.04938271604938272,0,0,0.04938271604938272,59.95061728395062,0)" xlink:href="#aJ"/><use transform="matrix(0.04938271604938272,0,0,0.04938271604938272,69.82716049382717,0)" xlink:href="#an"/><use transform="matrix(0.04938271604938272,0,0,0.04938271604938272,78.51851851851852,0)" xlink:href="#ae"/></g><path fill="#3a414a" d="M156-87c-4 1-15 3-20 3V0h-31v-84c-5 0-16-2-20-3L36 0H1l62-104c-22-24-40-59-60-86h33l50 76c5 5 9 7 19 7v-83h31v83c27-1 31-21 43-41l26-42h33l-60 86L240 0h-36" id="aK"/><g id="w"><use transform="matrix(0.06172839506172839,0,0,0.06172839506172839,0,0)" xlink:href="#R"/><use transform="matrix(0.06172839506172839,0,0,0.06172839506172839,17.28395061728395,0)" xlink:href="#aK"/><use transform="matrix(0.06172839506172839,0,0,0.06172839506172839,32.09876543209876,0)" xlink:href="#Q"/><use transform="matrix(0.06172839506172839,0,0,0.06172839506172839,44.50617283950616,0)" xlink:href="#V"/><use transform="matrix(0.06172839506172839,0,0,0.06172839506172839,57.469135802469125,0)" xlink:href="#I"/><use transform="matrix(0.06172839506172839,0,0,0.06172839506172839,69.81481481481481,0)" xlink:href="#P"/><use transform="matrix(0.06172839506172839,0,0,0.06172839506172839,82.03703703703704,0)" xlink:href="#Q"/><use transform="matrix(0.06172839506172839,0,0,0.06172839506172839,94.44444444444444,0)" xlink:href="#N"/></g><path fill="#333" d="M15-148v-39h180v39H15zm0 97v-39h180v39H15" id="aL"/><use transform="matrix(0.04938271604938272,0,0,0.04938271604938272,0,0)" xlink:href="#aL" id="x"/><g id="y"><use transform="matrix(0.06172839506172839,0,0,0.06172839506172839,0,0)" xlink:href="#M"/><use transform="matrix(0.06172839506172839,0,0,0.06172839506172839,12.345679012345679,0)" xlink:href="#N"/><use transform="matrix(0.06172839506172839,0,0,0.06172839506172839,24.691358024691358,0)" xlink:href="#L"/><use transform="matrix(0.06172839506172839,0,0,0.06172839506172839,32.77777777777778,0)" xlink:href="#aC"/><use transform="matrix(0.06172839506172839,0,0,0.06172839506172839,43.39506172839506,0)" xlink:href="#au"/><use transform="matrix(0.06172839506172839,0,0,0.06172839506172839,56.358024691358025,0)" xlink:href="#aA"/><use transform="matrix(0.06172839506172839,0,0,0.06172839506172839,68.33333333333333,0)" xlink:href="#S"/><use transform="matrix(0.06172839506172839,0,0,0.06172839506172839,78.20987654320987,0)" xlink:href="#K"/><use transform="matrix(0.06172839506172839,0,0,0.06172839506172839,90.55555555555556,0)" xlink:href="#M"/></g><g id="z"><use transform="matrix(0.06172839506172839,0,0,0.06172839506172839,0,0)" xlink:href="#S"/><use transform="matrix(0.06172839506172839,0,0,0.06172839506172839,9.876543209876543,0)" xlink:href="#I"/><use transform="matrix(0.06172839506172839,0,0,0.06172839506172839,22.22222222222222,0)" xlink:href="#aE"/><use transform="matrix(0.06172839506172839,0,0,0.06172839506172839,34.629629629629626,0)" xlink:href="#av"/><use transform="matrix(0.06172839506172839,0,0,0.06172839506172839,49.87654320987654,0)" xlink:href="#N"/><use transform="matrix(0.06172839506172839,0,0,0.06172839506172839,62.222222222222214,0)" xlink:href="#M"/><use transform="matrix(0.06172839506172839,0,0,0.06172839506172839,74.5679012345679,0)" xlink:href="#I"/></g><g id="A"><use transform="matrix(0.04938271604938272,0,0,0.04938271604938272,0,0)" xlink:href="#an"/><use transform="matrix(0.04938271604938272,0,0,0.04938271604938272,8.69135802469136,0)" xlink:href="#Z"/><use transform="matrix(0.04938271604938272,0,0,0.04938271604938272,18.567901234567906,0)" xlink:href="#ap"/><use transform="matrix(0.04938271604938272,0,0,0.04938271604938272,29.481481481481488,0)" xlink:href="#aq"/><use transform="matrix(0.04938271604938272,0,0,0.04938271604938272,42.61728395061729,0)" xlink:href="#ah"/><use transform="matrix(0.04938271604938272,0,0,0.04938271604938272,52.49382716049383,0)" xlink:href="#ab"/><use transform="matrix(0.04938271604938272,0,0,0.04938271604938272,63.30864197530866,0)" xlink:href="#Z"/></g><path fill="#3a414a" d="M80-196l47-18 7 23-49 13 32 44-20 13-27-46-27 45-21-12 33-44-49-13 8-23 47 19-2-53h23" id="aM"/><use transform="matrix(0.06172839506172839,0,0,0.06172839506172839,0,0)" xlink:href="#aM" id="B"/><path fill="#3a414a" d="M30 0v-248h30L58-37l132-211h39V0h-30l1-209L70 0H30" id="aN"/><g id="C"><use transform="matrix(0.06172839506172839,0,0,0.06172839506172839,0,0)" xlink:href="#aN"/><use transform="matrix(0.06172839506172839,0,0,0.06172839506172839,15.925925925925926,0)" xlink:href="#P"/><use transform="matrix(0.06172839506172839,0,0,0.06172839506172839,28.148148148148145,0)" xlink:href="#Q"/><use transform="matrix(0.06172839506172839,0,0,0.06172839506172839,40.55555555555555,0)" xlink:href="#W"/><use transform="matrix(0.06172839506172839,0,0,0.06172839506172839,53.2716049382716,0)" xlink:href="#Q"/><use transform="matrix(0.06172839506172839,0,0,0.06172839506172839,65.67901234567901,0)" xlink:href="#I"/><use transform="matrix(0.06172839506172839,0,0,0.06172839506172839,78.0246913580247,0)" xlink:href="#au"/><use transform="matrix(0.06172839506172839,0,0,0.06172839506172839,90.98765432098766,0)" xlink:href="#Q"/><use transform="matrix(0.06172839506172839,0,0,0.06172839506172839,103.39506172839506,0)" xlink:href="#J"/><use transform="matrix(0.06172839506172839,0,0,0.06172839506172839,113.58024691358025,0)" xlink:href="#I"/><use transform="matrix(0.06172839506172839,0,0,0.06172839506172839,125.92592592592594,0)" xlink:href="#W"/><use transform="matrix(0.06172839506172839,0,0,0.06172839506172839,138.64197530864197,0)" xlink:href="#Q"/><use transform="matrix(0.06172839506172839,0,0,0.06172839506172839,151.0493827160494,0)" xlink:href="#aA"/></g><g id="D"><use transform="matrix(0.04938271604938272,0,0,0.04938271604938272,0,0)" xlink:href="#aG"/><use transform="matrix(0.04938271604938272,0,0,0.04938271604938272,12.740740740740742,0)" xlink:href="#ae"/><use transform="matrix(0.04938271604938272,0,0,0.04938271604938272,23.654320987654323,0)" xlink:href="#an"/><use transform="matrix(0.04938271604938272,0,0,0.04938271604938272,32.345679012345684,0)" xlink:href="#Z"/><use transform="matrix(0.04938271604938272,0,0,0.04938271604938272,42.22222222222223,0)" xlink:href="#aH"/><use transform="matrix(0.04938271604938272,0,0,0.04938271604938272,52.93827160493828,0)" xlink:href="#ae"/><use transform="matrix(0.04938271604938272,0,0,0.04938271604938272,63.851851851851855,0)" xlink:href="#ah"/></g><path fill="#333" d="M140-251c80 0 125 45 125 126S219 4 139 4C58 4 15-44 15-125s44-126 125-126zm-1 214c52 0 73-35 73-88 0-50-21-86-72-86-52 0-73 35-73 86s22 88 72 88" id="aO"/><g id="E"><use transform="matrix(0.04938271604938272,0,0,0.04938271604938272,0,0)" xlink:href="#aO"/><use transform="matrix(0.04938271604938272,0,0,0.04938271604938272,13.827160493827162,0)" xlink:href="#an"/><use transform="matrix(0.04938271604938272,0,0,0.04938271604938272,22.51851851851852,0)" xlink:href="#aa"/><use transform="matrix(0.04938271604938272,0,0,0.04938271604938272,31.40740740740741,0)" xlink:href="#ab"/><use transform="matrix(0.04938271604938272,0,0,0.04938271604938272,42.22222222222222,0)" xlink:href="#ac"/><use transform="matrix(0.04938271604938272,0,0,0.04938271604938272,57.38271604938271,0)" xlink:href="#ad"/><use transform="matrix(0.04938271604938272,0,0,0.04938271604938272,68.64197530864197,0)" xlink:href="#ae"/></g><path fill="#333" d="M186 0v-106H76V0H24v-248h52v99h110v-99h50V0h-50" id="aP"/><g id="F"><use transform="matrix(0.04938271604938272,0,0,0.04938271604938272,0,0)" xlink:href="#aP"/><use transform="matrix(0.04938271604938272,0,0,0.04938271604938272,12.790123456790125,0)" xlink:href="#ah"/><use transform="matrix(0.04938271604938272,0,0,0.04938271604938272,22.419753086419757,0)" xlink:href="#an"/></g><path fill="#333" d="M192-190V0h-49v-157H75V0H25v-190h167" id="aQ"/><g id="G"><use transform="matrix(0.04938271604938272,0,0,0.04938271604938272,0,0)" xlink:href="#aQ"/><use transform="matrix(0.04938271604938272,0,0,0.04938271604938272,10.71604938271605,0)" xlink:href="#ae"/><use transform="matrix(0.04938271604938272,0,0,0.04938271604938272,21.629629629629633,0)" xlink:href="#an"/><use transform="matrix(0.04938271604938272,0,0,0.04938271604938272,30.320987654320994,0)" xlink:href="#Z"/><use transform="matrix(0.04938271604938272,0,0,0.04938271604938272,40.19753086419754,0)" xlink:href="#aH"/><use transform="matrix(0.04938271604938272,0,0,0.04938271604938272,50.91358024691358,0)" xlink:href="#ae"/><use transform="matrix(0.04938271604938272,0,0,0.04938271604938272,61.82716049382718,0)" xlink:href="#am"/></g></defs></g></svg>